HIERARCHY
ROOT root
{
  OFFSET 0 93.2929 0
  CHANNELS 6 Xposition Yposition Zposition Zrotation Xrotation Yrotation
  JOINT torso_1
  {
    OFFSET 0 5.07867 -1.15138
    CHANNELS 6 Xposition Yposition Zposition Zrotation Xrotation Yrotation
    JOINT torso_2
    {
      OFFSET 0 5.61661 1.07143
      CHANNELS 6 Xposition Yposition Zposition Zrotation Xrotation Yrotation
      JOINT torso_3
      {
        OFFSET -1.02604e-17 5.98978 0.11501
        CHANNELS 6 Xposition Yposition Zposition Zrotation Xrotation Yrotation
        JOINT torso_4
        {
          OFFSET -1.10457e-17 6.50583 -0.443523
          CHANNELS 6 Xposition Yposition Zposition Zrotation Xrotation Yrotation
          JOINT torso_5
          {
            OFFSET -1.97295e-17 7.60548 -1.50593
            CHANNELS 6 Xposition Yposition Zposition Zrotation Xrotation Yrotation
            JOINT torso_6
            {
              OFFSET -2.53307e-17 9.49737 -0.914492
              CHANNELS 6 Xposition Yposition Zposition Zrotation Xrotation Yrotation
              JOINT torso_7
              {
                OFFSET -2.90401e-17 10.5513 1.57691
                CHANNELS 6 Xposition Yposition Zposition Zrotation Xrotation Yrotation
                JOINT neck_1
                {
                  OFFSET -1.29193e-17 4.78644 0.715339
                  CHANNELS 6 Xposition Yposition Zposition Zrotation Xrotation Yrotation
                  JOINT neck_2
                  {
                    OFFSET -1.8116e-17 4.82109 0.421791
                    CHANNELS 6 Xposition Yposition Zposition Zrotation Xrotation Yrotation
                    JOINT head
                    {
                      OFFSET -2.00958e-17 4.83041 0.765062
                      CHANNELS 6 Xposition Yposition Zposition Zrotation Xrotation Yrotation
                      End Site
                      {
                        OFFSET 0 0.1 0
                      }
                    }
                  }
                }
                JOINT l_shoulder
                {
                  OFFSET 1.23299 -7.60731 7.53374
                  CHANNELS 6 Xposition Yposition Zposition Zrotation Xrotation Yrotation
                  JOINT l_up_arm
                  {
                    OFFSET 12.9547 3.2495 -3.26872
                    CHANNELS 6 Xposition Yposition Zposition Zrotation Xrotation Yrotation
                    JOINT l_low_arm
                    {
                      OFFSET 29.2081 0.0598081 0.137039
                      CHANNELS 6 Xposition Yposition Zposition Zrotation Xrotation Yrotation
                      JOINT l_hand
                      {
                        OFFSET 24.234 0.0496219 0.113701
                        CHANNELS 6 Xposition Yposition Zposition Zrotation Xrotation Yrotation
                        End Site
                        {
                          OFFSET 0.1 0 0
                        }
                      }
                    }
                  }
                }
                JOINT r_shoulder
                {
                  OFFSET -1.23299 -7.60729 7.53365
                  CHANNELS 6 Xposition Yposition Zposition Zrotation Xrotation Yrotation
                  JOINT r_up_arm
                  {
                    OFFSET -12.9547 3.2495 -3.26872
                    CHANNELS 6 Xposition Yposition Zposition Zrotation Xrotation Yrotation
                    JOINT r_low_arm
                    {
                      OFFSET -29.2081 0.0598081 0.137039
                      CHANNELS 6 Xposition Yposition Zposition Zrotation Xrotation Yrotation
                      JOINT r_hand
                      {
                        OFFSET -24.234 0.0496218 0.113702
                        CHANNELS 6 Xposition Yposition Zposition Zrotation Xrotation Yrotation
                        End Site
                        {
                          OFFSET -0.1 0 0
                        }
                      }
                    }
                  }
                }
              }
            }
          }
        }
      }
    }
  }
  JOINT l_up_leg
  {
    OFFSET 9.23673 -4.20556 2.0327
    CHANNELS 6 Xposition Yposition Zposition Zrotation Xrotation Yrotation
    JOINT l_low_leg
    {
      OFFSET -0.852353 -38.7721 -0.655187
      CHANNELS 6 Xposition Yposition Zposition Zrotation Xrotation Yrotation
      JOINT l_foot
      {
        OFFSET -2.32622 -40.4017 -6.04875
        CHANNELS 6 Xposition Yposition Zposition Zrotation Xrotation Yrotation
        JOINT l_toes
        {
          OFFSET 0.779096 -9.8844 12.4959
          CHANNELS 6 Xposition Yposition Zposition Zrotation Xrotation Yrotation
          End Site
          {
            OFFSET 0 0 0.1
          }
        }
      }
    }
  }
  JOINT r_up_leg
  {
    OFFSET -9.23673 -4.20556 2.0327
    CHANNELS 6 Xposition Yposition Zposition Zrotation Xrotation Yrotation
    JOINT r_low_leg
    {
      OFFSET 0.852353 -38.7721 -0.655187
      CHANNELS 6 Xposition Yposition Zposition Zrotation Xrotation Yrotation
      JOINT r_foot
      {
        OFFSET 2.32622 -40.4017 -6.04875
        CHANNELS 6 Xposition Yposition Zposition Zrotation Xrotation Yrotation
        JOINT r_toes
        {
          OFFSET -0.779096 -9.8844 12.4959
          CHANNELS 6 Xposition Yposition Zposition Zrotation Xrotation Yrotation
          End Site
          {
            OFFSET 0 0 0.1
          }
        }
      }
    }
  }
}
MOTION
Frames: 5
Frame Time: 0.016667
0 93.2929 0 -0 0 -0 0 5.07867 -1.15138 -0 0 -0 0 5.61661 1.07143 -0 0 -0 -1.02604e-17 5.98978 0.11501 -0 0 -0 -1.10457e-17 6.50583 -0.443523 -0 0 -0 -1.97295e-17 7.60548 -1.50593 -0 0 -0 -2.53307e-17 9.49737 -0.914492 -0 0 -0 -2.90401e-17 10.5513 1.57691 -0 0 -0 -1.29193e-17 4.78644 0.715339 -0 0 -0 -1.8116e-17 4.82109 0.421791 -0 0 -0 -2.00958e-17 4.83041 0.765062 -0 0 -0 1.23299 -7.60731 7.53374 -0 0 -0 12.9547 3.2495 -3.26872 -0 0 -0 29.2081 0.0598081 0.137039 -0 0 -0 24.234 0.0496219 0.113701 -0 0 -0 -1.23299 -7.60729 7.53365 -0 0 -0 -12.9547 3.2495 -3.26872 -0 0 -0 -29.2081 0.0598081 0.137039 -0 0 -0 -24.234 0.0496218 0.113702 -0 0 -0 9.23673 -4.20556 2.0327 -0 0 -0 -0.852353 -38.7721 -0.655187 -0 0 -0 -2.32622 -40.4017 -6.04875 -0 0 -0 0.779096 -9.8844 12.4959 -0 0 -0 -9.23673 -4.20556 2.0327 -0 0 -0 0.852353 -38.7721 -0.655187 -0 0 -0 2.32622 -40.4017 -6.04875 -0 0 -0 -0.779096 -9.8844 12.4959 -0 0 -0 
6.21186 93.2044 -14.5364 -0.124976 1.05047 71.1335 0 5.07867 -1.15138 0.123686 -1.25657 1.45728 0 5.61661 1.07143 -0.423908 0.0859539 1.46572 -1.02604e-17 5.98978 0.11501 -0.662855 1.98076 1.39555 -1.10457e-17 6.50583 -0.443523 -0.988923 5.08643 1.35645 -1.97295e-17 7.60548 -1.50593 -0.975523 6.29366 1.47728 -2.53307e-17 9.49737 -0.914492 -0.675669 7.13512 1.60268 -2.90401e-17 10.5513 1.57691 -0.0167734 0.0897245 -0.0377506 -1.29193e-17 4.78644 0.715339 -1.23952 15.7097 3.47941 -1.8116e-17 4.82109 0.421791 -2.77631 9.48662 1.33685 -2.00958e-17 4.83041 0.765062 -3.68911 20.393 2.41253 1.23299 -7.60731 7.53374 -1.84188 -0.198528 -5.19825 12.9547 3.2495 -3.26872 -84.8342 11.5826 -14.1351 29.2081 0.0598081 0.137039 1.1977 -0.0541852 -5.78216 24.234 0.0496219 0.113701 1.01588 -17.0156 -1.05335 -1.23299 -7.60729 7.53365 -7.33263 -3.39849 0.405009 -12.9547 3.2495 -3.26872 68.2989 47.3662 26.8089 -29.2081 0.0598081 0.137039 -11.0564 -7.26787 67.1377 -24.234 0.0496218 0.113702 2.81157 -53.9896 5.32724 9.23673 -4.20556 2.0327 2.1247 -4.40199 -12.5331 -0.852353 -38.7721 -0.655187 -0.761171 2.8428 -0.0307406 -2.32622 -40.4017 -6.04875 -1.68667 0.608626 15.2821 0.779096 -9.8844 12.4959 4.96962e-17 -7.95139e-16 1.2424e-17 -9.23673 -4.20556 2.0327 0.0267482 -1.38766 27.6213 0.852353 -38.7721 -0.655187 0.285401 1.06553 0.0159454 2.32622 -40.4017 -6.04875 -2.12731 -0.845264 -14.9591 -0.779096 -9.8844 12.4959 -2.64064e-16 -5.7985e-16 -1.27575e-14 
6.21093 93.2043 -14.5323 -0.127236 1.05041 71.1499 0 5.07867 -1.15138 0.12438 -1.27058 1.4581 0 5.61661 1.07143 -0.423433 0.0764714 1.46634 -1.02604e-17 5.98978 0.11501 -0.662557 1.97677 1.39618 -1.10457e-17 6.50583 -0.443523 -0.988869 5.09058 1.35704 -1.97295e-17 7.60548 -1.50593 -0.975623 6.30295 1.47792 -2.53307e-17 9.49737 -0.914492 -0.675925 7.14717 1.60364 -2.90401e-17 10.5513 1.57691 -0.0167661 0.0895575 -0.0377499 -1.29193e-17 4.78644 0.715339 -1.24053 15.7229 3.48086 -1.8116e-17 4.82109 0.421791 -2.77193 9.49033 1.33781 -2.00958e-17 4.83041 0.765062 -3.67867 20.3936 2.42008 1.23299 -7.60731 7.53374 -1.83983 -0.208131 -5.1916 12.9547 3.2495 -3.26872 -84.846 11.5685 -14.1371 29.2081 0.0598081 0.137039 1.19597 -0.0540196 -5.77381 24.234 0.0496219 0.113701 1.02842 -16.9697 -1.04228 -1.23299 -7.60729 7.53365 -7.33491 -3.40483 0.399009 -12.9547 3.2495 -3.26872 68.3032 47.3648 26.805 -29.2081 0.0598081 0.137039 -11.0557 -7.26628 67.1295 -24.234 0.0496218 0.113702 2.81224 -53.9716 5.3317 9.23673 -4.20556 2.0327 2.1271 -4.4171 -12.5537 -0.852353 -38.7721 -0.655187 -0.766451 2.86253 -0.030822 -2.32622 -40.4017 -6.04875 -1.68941 0.60539 15.2829 0.779096 -9.8844 12.4959 4.96962e-17 -7.95139e-16 1.2424e-17 -9.23673 -4.20556 2.0327 0.0283622 -1.3862 27.6077 0.852353 -38.7721 -0.655187 0.284568 1.06242 0.0159066 2.32622 -40.4017 -6.04875 -2.12491 -0.845244 -14.959 -0.779096 -9.8844 12.4959 -5.95368e-16 -5.59143e-16 -1.27471e-14 
6.20937 93.2037 -14.5285 -0.128388 1.05136 71.1586 0 5.07867 -1.15138 0.123411 -1.28773 1.45783 0 5.61661 1.07143 -0.423991 0.0648007 1.46551 -1.02604e-17 5.98978 0.11501 -0.66292 1.97236 1.39525 -1.10457e-17 6.50583 -0.443523 -0.989004 5.09683 1.35596 -1.97295e-17 7.60548 -1.50593 -0.97584 6.31601 1.47683 -2.53307e-17 9.49737 -0.914492 -0.676571 7.16371 1.60268 -2.90401e-17 10.5513 1.57691 -0.0167692 0.089317 -0.0377797 -1.29193e-17 4.78644 0.715339 -1.24196 15.7401 3.48396 -1.8116e-17 4.82109 0.421791 -2.77164 9.49105 1.33929 -2.00958e-17 4.83041 0.765062 -3.68672 20.3949 2.42938 1.23299 -7.60731 7.53374 -1.83458 -0.223967 -5.181 12.9547 3.2495 -3.26872 -84.8559 11.5655 -14.1312 29.2081 0.0598081 0.137039 1.19498 -0.0539241 -5.76898 24.234 0.0496219 0.113701 1.02944 -16.9517 -1.02989 -1.23299 -7.60729 7.53365 -7.34122 -3.4176 0.389238 -12.9547 3.2495 -3.26872 68.3093 47.3683 26.811 -29.2081 0.0598081 0.137039 -11.0544 -7.26332 67.1141 -24.234 0.0496218 0.113702 2.81004 -53.9143 5.32513 9.23673 -4.20556 2.0327 2.12688 -4.42138 -12.5513 -0.852353 -38.7721 -0.655187 -0.767074 2.86485 -0.0308315 -2.32622 -40.4017 -6.04875 -1.68317 0.606395 15.2825 0.779096 -9.8844 12.4959 4.96962e-17 -7.95139e-16 1.2424e-17 -9.23673 -4.20556 2.0327 0.0296259 -1.38483 27.6043 0.852353 -38.7721 -0.655187 0.283564 1.05867 0.0158597 2.32622 -40.4017 -6.04875 -2.12907 -0.845237 -14.9581 -0.779096 -9.8844 12.4959 -9.26676e-16 -5.48759e-16 -1.27264e-14 
6.20748 93.2032 -14.5254 -0.129506 1.05075 71.1665 0 5.07867 -1.15138 0.12362 -1.30513 1.45782 0 5.61661 1.07143 -0.423725 0.0531631 1.46506 -1.02604e-17 5.98978 0.11501 -0.662816 1.96844 1.39466 -1.10457e-17 6.50583 -0.443523 -0.989072 5.1042 1.35523 -1.97295e-17 7.60548 -1.50593 -0.976335 6.3306 1.4761 -2.53307e-17 9.49737 -0.914492 -0.677861 7.182 1.60231 -2.90401e-17 10.5513 1.57691 -0.0167723 0.0890567 -0.0378072 -1.29193e-17 4.78644 0.715339 -1.24537 15.7618 3.49531 -1.8116e-17 4.82109 0.421791 -2.77498 9.48964 1.34469 -2.00958e-17 4.83041 0.765062 -3.68895 20.3842 2.43749 1.23299 -7.60731 7.53374 -1.82924 -0.242431 -5.16834 12.9547 3.2495 -3.26872 -84.8687 11.5563 -14.1312 29.2081 0.0598081 0.137039 1.1941 -0.0538401 -5.76474 24.234 0.0496219 0.113701 1.02835 -16.9181 -1.022 -1.23299 -7.60729 7.53365 -7.34987 -3.43106 0.377662 -12.9547 3.2495 -3.26872 68.3203 47.3689 26.816 -29.2081 0.0598081 0.137039 -11.0524 -7.25863 67.0898 -24.234 0.0496218 0.113702 2.78872 -53.8468 5.30212 9.23673 -4.20556 2.0327 2.12866 -4.42595 -12.5545 -0.852353 -38.7721 -0.655187 -0.768139 2.86883 -0.0308476 -2.32622 -40.4017 -6.04875 -1.68116 0.60509 15.2826 0.779096 -9.8844 12.4959 3.13757e-16 -7.86887e-16 4.17215e-18 -9.23673 -4.20556 2.0327 0.0327399 -1.38905 27.6029 0.852353 -38.7721 -0.655187 0.285397 1.06552 0.0159452 2.32622 -40.4017 -6.04875 -2.12975 -0.847866 -14.9578 -0.779096 -9.8844 12.4959 -4.65802e-16 -5.71414e-16 -1.2747e-14 
